<svg xmlns="http://www.w3.org/2000/svg" version="1.1" xmlns:xlink="http://www.w3.org/1999/xlink" xmlns:svgjs="http://svgjs.dev/svgjs" width="1500" height="446" viewBox="0 0 1500 446"><g transform="matrix(1,0,0,1,-0.9090909090909918,-0.5777524365746842)"><svg viewBox="0 0 396 118" data-background-color="#ffffff" preserveAspectRatio="xMidYMid meet" height="446" width="1500" xmlns="http://www.w3.org/2000/svg" xmlns:xlink="http://www.w3.org/1999/xlink"><g id="tight-bounds" transform="matrix(1,0,0,1,0.2400000000000091,0.15285826797267532)"><svg viewBox="0 0 395.52 117.69428346405464" height="117.69428346405464" width="395.52"><g><svg viewBox="0 0 698.3427325224056 207.80478235374824" height="117.69428346405464" width="395.52"><g><rect width="12.840624639590402" height="207.80478235374824" x="256.3679072556153" y="0" fill="#3c2c32" opacity="1" stroke-width="0" stroke="transparent" fill-opacity="1" class="rect-yte-0" data-fill-palette-color="primary" rx="1%" id="yte-0" data-palette-color="#3c2c32"></rect></g><g transform="matrix(1,0,0,1,302.8227325224058,0.516927319287916)"><svg viewBox="0 0 395.52 206.7709277151724" height="206.7709277151724" width="395.52"><g id="textblocktransform"><svg viewBox="0 0 395.52 206.7709277151724" height="206.7709277151724" width="395.52" id="textblock"><g><svg viewBox="0 0 395.52 142.3872" height="142.3872" width="395.52"><g transform="matrix(1,0,0,1,0,0)"><svg width="395.52" viewBox="2 -25.7 72.49 26.099999999999998" height="142.3872" data-palette-color="#3c2c32"><path d="M10.45-25.7Q13.95-25.7 16.05-23.43 18.15-21.15 18.15-17.35L18.15-17.35 18.15-0.5Q18.15 0 17.65 0L17.65 0 15.1 0Q14.6 0 14.6-0.5L14.6-0.5 14.6-2Q14.6-2.1 14.53-2.13 14.45-2.15 14.35-2.05L14.35-2.05Q12.5 0.4 8.8 0.4L8.8 0.4Q6.05 0.4 4.03-1.18 2-2.75 2-6.75L2-6.75Q2-11 4.45-12.98 6.9-14.95 10.9-14.95L10.9-14.95 14.4-14.95Q14.6-14.95 14.6-15.15L14.6-15.15 14.6-17.1Q14.6-19.6 13.45-21.1 12.3-22.6 10.35-22.6L10.35-22.6Q8.85-22.6 7.78-21.6 6.7-20.6 6.5-19.05L6.5-19.05Q6.5-18.55 6-18.55L6-18.55 3.2-18.6Q2.95-18.6 2.83-18.75 2.7-18.9 2.75-19.1L2.75-19.1Q3-22.05 5.15-23.88 7.3-25.7 10.45-25.7L10.45-25.7ZM9.55-2.7Q11.6-2.7 13.1-4.03 14.6-5.35 14.6-7.7L14.6-7.7 14.6-11.9Q14.6-12.1 14.4-12.1L14.4-12.1 10.85-12.1Q8.45-12.1 7.05-10.83 5.65-9.55 5.65-7.05L5.65-7.05Q5.65-4.85 6.73-3.78 7.8-2.7 9.55-2.7L9.55-2.7ZM35.25-24.8Q35.25-25.3 35.75-25.3L35.75-25.3 38.3-25.3Q38.8-25.3 38.8-24.8L38.8-24.8 38.8-0.5Q38.8 0 38.3 0L38.3 0 35.75 0Q35.25 0 35.25-0.5L35.25-0.5 35.25-2.2Q35.25-2.35 35.17-2.35 35.1-2.35 35-2.25L35-2.25Q33.45 0.35 30 0.35L30 0.35Q27 0.35 25.22-1.48 23.45-3.3 23.45-7L23.45-7 23.45-24.8Q23.45-25.3 23.95-25.3L23.95-25.3 26.5-25.3Q27-25.3 27-24.8L27-24.8 27-7.8Q27-5.3 28.02-4.03 29.05-2.75 31-2.75L31-2.75Q33-2.75 34.12-4.2 35.25-5.65 35.25-8.15L35.25-8.15 35.25-24.8ZM53.45-25.55Q54.7-25.55 55.6-25L55.6-25Q55.95-24.8 55.85-24.35L55.85-24.35 55.25-21.75Q55.2-21.3 54.65-21.45L54.65-21.45Q54.05-21.75 53.15-21.75L53.15-21.75Q52.75-21.75 52.55-21.7L52.55-21.7Q50.75-21.6 49.6-19.83 48.45-18.05 48.45-15.5L48.45-15.5 48.45-0.5Q48.45 0 47.95 0L47.95 0 45.4 0Q44.9 0 44.9-0.5L44.9-0.5 44.9-24.8Q44.9-25.3 45.4-25.3L45.4-25.3 47.95-25.3Q48.45-25.3 48.45-24.8L48.45-24.8 48.45-21.8Q48.45-21.65 48.52-21.65 48.6-21.65 48.7-21.75L48.7-21.75Q50.15-25.55 53.45-25.55L53.45-25.55ZM66.79-25.7Q70.29-25.7 72.39-23.43 74.49-21.15 74.49-17.35L74.49-17.35 74.49-0.5Q74.49 0 73.99 0L73.99 0 71.44 0Q70.94 0 70.94-0.5L70.94-0.5 70.94-2Q70.94-2.1 70.87-2.13 70.79-2.15 70.69-2.05L70.69-2.05Q68.84 0.4 65.14 0.4L65.14 0.4Q62.39 0.4 60.37-1.18 58.34-2.75 58.34-6.75L58.34-6.75Q58.34-11 60.79-12.98 63.24-14.95 67.24-14.95L67.24-14.95 70.74-14.95Q70.94-14.95 70.94-15.15L70.94-15.15 70.94-17.1Q70.94-19.6 69.79-21.1 68.64-22.6 66.69-22.6L66.69-22.6Q65.19-22.6 64.12-21.6 63.04-20.6 62.84-19.05L62.84-19.05Q62.84-18.55 62.34-18.55L62.34-18.55 59.54-18.6Q59.29-18.6 59.17-18.75 59.04-18.9 59.09-19.1L59.09-19.1Q59.34-22.05 61.49-23.88 63.64-25.7 66.79-25.7L66.79-25.7ZM65.89-2.7Q67.94-2.7 69.44-4.03 70.94-5.35 70.94-7.7L70.94-7.7 70.94-11.9Q70.94-12.1 70.74-12.1L70.74-12.1 67.19-12.1Q64.79-12.1 63.39-10.83 61.99-9.55 61.99-7.05L61.99-7.05Q61.99-4.85 63.07-3.78 64.14-2.7 65.89-2.7L65.89-2.7Z" opacity="1" transform="matrix(1,0,0,1,0,0)" fill="#3c2c32" class="wordmark-text-0" data-fill-palette-color="primary" id="text-0"></path></svg></g></svg></g><g transform="matrix(1,0,0,1,0,176.0014006272)"><svg viewBox="0 0 232.209792 30.7695270879724" height="30.7695270879724" width="232.209792"><g transform="matrix(1,0,0,1,0,0)"><svg width="232.209792" viewBox="3.75 -32.75 318.82 42.25" height="30.7695270879724" data-palette-color="#f9ad59"><path d="M22.4-16L22.4-16 22.4-10.25 18.4-10.25 18.4-15.7Q18.4-18.15 16.98-19.3 15.55-20.45 13.2-20.45L13.2-20.45Q11.65-20.45 10.2-19.95 8.75-19.45 7.75-18.8L7.75-18.8 7.75-10.25 3.75-10.25 3.75-18.6Q3.75-19.6 4.17-20.3 4.6-21 5.65-21.65L5.65-21.65Q7-22.5 9.08-23.13 11.15-23.75 13.25-23.75L13.25-23.75Q15.8-23.75 17.75-22.98 19.7-22.2 20.65-20.85L20.65-20.85Q20.95-20.55 21.15-20.3 21.35-20.05 21.55-19.65L21.55-19.65Q21.9-19.05 22.15-18.1 22.4-17.15 22.4-16ZM37.05-15.9L37.05-15.9 37.05-10.25 33.05-10.25 33.05-15.7Q33.05-18.15 31.65-19.3 30.25-20.45 27.9-20.45L27.9-20.45Q26.15-20.45 24.53-19.73 22.9-19 21.6-17.65L21.6-17.65 20-20.55Q21.3-21.85 23.4-22.8 25.5-23.75 28.2-23.75L28.2-23.75Q30.9-23.75 32.88-22.9 34.85-22.05 35.95-20.3 37.05-18.55 37.05-15.9ZM3.75-1.55L3.75-12.9 7.75-12.9 7.75-0.1Q7.5 0 7 0.13 6.5 0.25 5.9 0.25L5.9 0.25Q4.85 0.25 4.3-0.18 3.75-0.6 3.75-1.55L3.75-1.55ZM18.4-1.55L18.4-12.9 22.4-12.9 22.4-0.1Q22.15 0 21.63 0.13 21.1 0.25 20.55 0.25L20.55 0.25Q19.45 0.25 18.93-0.18 18.4-0.6 18.4-1.55L18.4-1.55ZM33.05-1.55L33.05-12.9 37.05-12.9 37.05-0.1Q36.8 0 36.27 0.13 35.75 0.25 35.2 0.25L35.2 0.25Q34.1 0.25 33.58-0.18 33.05-0.6 33.05-1.55L33.05-1.55ZM52.8-2.6L52.8-2.6 52.8-2.6Q54.9-2.6 56.27-3.03 57.65-3.45 58.25-3.85L58.25-3.85 58.25-11.1 52.05-10.45Q49.45-10.25 48.2-9.3 46.95-8.35 46.95-6.55L46.95-6.55Q46.95-4.7 48.42-3.65 49.9-2.6 52.8-2.6ZM52.75-23.75L52.75-23.75 52.75-23.75Q57.1-23.75 59.65-21.8 62.2-19.85 62.2-15.65L62.2-15.65 62.2-3.8Q62.2-2.7 61.77-2.13 61.35-1.55 60.5-1.05L60.5-1.05Q59.3-0.4 57.3 0.15 55.3 0.7 52.8 0.7L52.8 0.7Q48.1 0.7 45.52-1.15 42.95-3 42.95-6.5L42.95-6.5Q42.95-9.75 45.12-11.48 47.3-13.2 51.15-13.55L51.15-13.55 58.25-14.25 58.25-15.65Q58.25-18.15 56.75-19.3 55.25-20.45 52.7-20.45L52.7-20.45Q50.65-20.45 48.77-19.85 46.9-19.25 45.45-18.5L45.45-18.5Q45.05-18.85 44.72-19.33 44.4-19.8 44.4-20.3L44.4-20.3Q44.4-21.6 45.85-22.3L45.85-22.3Q47.2-23 48.97-23.38 50.75-23.75 52.75-23.75ZM85.45-19.15L75.65-10.55 73.15-12.5 84.55-23.55Q85.75-23.5 86.42-22.98 87.09-22.45 87.09-21.6L87.09-21.6Q87.09-20.9 86.67-20.35 86.25-19.8 85.45-19.15L85.45-19.15ZM83.7-1.15L73.05-11.85 75.84-13.5 88.55-2.1Q88.45-1 87.87-0.35 87.3 0.3 86.34 0.3L86.34 0.3Q85.59 0.3 84.97-0.1 84.34-0.5 83.7-1.15L83.7-1.15ZM69.59-1.55L69.59-13.4 73.59-12.8 73.59-0.1Q73.34 0 72.84 0.13 72.34 0.25 71.75 0.25L71.75 0.25Q70.7 0.25 70.15-0.18 69.59-0.6 69.59-1.55L69.59-1.55ZM73.59-30.95L73.59-10.85 69.59-11.45 69.59-32.4Q69.84-32.5 70.37-32.63 70.9-32.75 71.5-32.75L71.5-32.75Q72.55-32.75 73.07-32.33 73.59-31.9 73.59-30.95L73.59-30.95ZM112.09-11.35L95.29-9 95.09-12.15 110.19-14.2Q109.99-16.95 108.29-18.73 106.59-20.5 103.59-20.5L103.59-20.5Q100.49-20.5 98.47-18.28 96.44-16.05 96.44-11.9L96.44-11.9 96.44-10.8Q96.79-6.8 99.07-4.73 101.34-2.65 105.29-2.65L105.29-2.65Q107.39-2.65 109.09-3.35 110.79-4.05 111.79-4.85L111.79-4.85Q112.34-4.5 112.67-4.03 112.99-3.55 112.99-2.95L112.99-2.95Q112.99-2 111.92-1.18 110.84-0.35 109.07 0.15 107.29 0.65 105.09 0.65L105.09 0.65Q101.24 0.65 98.42-0.75 95.59-2.15 94.07-4.93 92.54-7.7 92.54-11.7L92.54-11.7Q92.54-14.55 93.37-16.78 94.19-19 95.67-20.55 97.14-22.1 99.19-22.93 101.24-23.75 103.64-23.75L103.64-23.75Q106.69-23.75 109.02-22.45 111.34-21.15 112.67-18.82 113.99-16.5 113.99-13.5L113.99-13.5Q113.99-12.4 113.49-11.93 112.99-11.45 112.09-11.35L112.09-11.35ZM134.49-5.15L134.49-5.15 134.49-5.15Q133.64-6.75 132.44-9.47 131.24-12.2 129.96-15.58 128.69-18.95 127.54-22.45L127.54-22.45Q127.89-22.95 128.46-23.25 129.04-23.55 129.69-23.55L129.69-23.55Q130.54-23.55 131.09-23.1 131.64-22.65 131.99-21.6L131.99-21.6Q133.49-17.4 135.14-13.25 136.79-9.1 138.79-4.65L138.79-4.65 138.99-4.65Q140.04-6.75 141.19-9.9 142.34-13.05 143.39-16.55 144.44-20.05 145.14-23.15L145.14-23.15Q145.49-23.3 145.91-23.43 146.34-23.55 146.84-23.55L146.84-23.55Q147.69-23.55 148.24-23.13 148.79-22.7 148.79-21.85L148.79-21.85Q148.79-21.05 148.34-19.18 147.89-17.3 147.11-14.83 146.34-12.35 145.31-9.58 144.29-6.8 143.11-4.13 141.94-1.45 140.74 0.7L140.74 0.7Q138.44 4.95 136.54 7.23 134.64 9.5 133.04 9.5L133.04 9.5Q131.89 9.5 131.26 8.9 130.64 8.3 130.49 7.5L130.49 7.5Q131.59 6.55 132.96 4.98 134.34 3.4 135.61 1.58 136.89-0.25 137.69-1.9L137.69-1.9Q136.84-2.15 136.11-2.8 135.39-3.45 134.49-5.15ZM175.69-11.55L175.69-11.55 175.69-11.55Q175.69-7.85 174.29-5.1 172.89-2.35 170.34-0.85 167.79 0.65 164.34 0.65L164.34 0.65Q160.89 0.65 158.31-0.85 155.74-2.35 154.34-5.1 152.94-7.85 152.94-11.55L152.94-11.55Q152.94-15.3 154.36-18.03 155.79-20.75 158.36-22.25 160.94-23.75 164.34-23.75L164.34-23.75Q167.74-23.75 170.29-22.25 172.84-20.75 174.26-18.03 175.69-15.3 175.69-11.55ZM164.34-20.45L164.34-20.45 164.34-20.45Q160.99-20.45 159.01-18.07 157.04-15.7 157.04-11.55L157.04-11.55Q157.04-7.35 158.96-5 160.89-2.65 164.34-2.65L164.34-2.65Q167.74-2.65 169.66-5.03 171.59-7.4 171.59-11.55L171.59-11.55Q171.59-15.7 169.66-18.07 167.74-20.45 164.34-20.45ZM181.88-8.45L181.88-8.45 181.88-13 185.88-13 185.88-8.65Q185.88-5.45 187.58-4.05 189.28-2.65 192.28-2.65L192.28-2.65Q194.28-2.65 195.68-3.08 197.08-3.5 197.88-3.95L197.88-3.95 197.88-13 201.88-13 201.88-4.1Q201.88-3.05 201.61-2.43 201.33-1.8 200.28-1.2L200.28-1.2Q199.18-0.55 197.13 0.05 195.08 0.65 192.23 0.65L192.23 0.65Q188.93 0.65 186.61-0.33 184.28-1.3 183.08-3.33 181.88-5.35 181.88-8.45ZM201.88-21.5L201.88-10.4 197.88-10.4 197.88-23Q198.13-23.1 198.66-23.23 199.18-23.35 199.73-23.35L199.73-23.35Q200.83-23.35 201.36-22.93 201.88-22.5 201.88-21.5L201.88-21.5ZM185.88-21.5L185.88-10.4 181.88-10.4 181.88-23Q182.13-23.1 182.66-23.23 183.18-23.35 183.78-23.35L183.78-23.35Q184.83-23.35 185.36-22.93 185.88-22.5 185.88-21.5L185.88-21.5ZM213.38-18.8L213.38-18.8 213.38-10.9 209.38-10.9 209.38-18.5Q209.38-19.65 209.81-20.33 210.23-21 211.23-21.65L211.23-21.65Q212.53-22.5 214.78-23.13 217.03-23.75 219.78-23.75L219.78-23.75Q223.78-23.75 223.78-21.75L223.78-21.75Q223.78-21.25 223.63-20.83 223.48-20.4 223.23-20.1L223.23-20.1Q222.73-20.2 221.93-20.3 221.13-20.4 220.33-20.4L220.33-20.4Q218.03-20.4 216.28-19.93 214.53-19.45 213.38-18.8ZM209.38-1.55L209.38-13.2 213.38-12.6 213.38-0.1Q213.13 0 212.63 0.13 212.13 0.25 211.53 0.25L211.53 0.25Q210.48 0.25 209.93-0.18 209.38-0.6 209.38-1.55L209.38-1.55ZM259.93-11.55L259.93-11.55 259.93-11.55Q259.93-7.85 258.53-5.1 257.13-2.35 254.58-0.85 252.03 0.65 248.58 0.65L248.58 0.65Q245.13 0.65 242.55-0.85 239.98-2.35 238.58-5.1 237.18-7.85 237.18-11.55L237.18-11.55Q237.18-15.3 238.6-18.03 240.03-20.75 242.6-22.25 245.18-23.75 248.58-23.75L248.58-23.75Q251.98-23.75 254.53-22.25 257.08-20.75 258.5-18.03 259.93-15.3 259.93-11.55ZM248.58-20.45L248.58-20.45 248.58-20.45Q245.23-20.45 243.25-18.07 241.28-15.7 241.28-11.55L241.28-11.55Q241.28-7.35 243.2-5 245.13-2.65 248.58-2.65L248.58-2.65Q251.98-2.65 253.9-5.03 255.83-7.4 255.83-11.55L255.83-11.55Q255.83-15.7 253.9-18.07 251.98-20.45 248.58-20.45ZM280.67-17.2L280.67-17.2 280.67-17.2Q279.77-14.05 278.75-10.9 277.72-7.75 276.77-5 275.82-2.25 275.02-0.25L275.02-0.25Q274.62 0 274.12 0.15 273.62 0.3 272.77 0.3L272.77 0.3Q271.97 0.3 271.3 0.03 270.62-0.25 270.37-0.85L270.37-0.85Q269.87-1.85 269.25-3.75 268.62-5.65 267.95-8.1 267.27-10.55 266.57-13.18 265.87-15.8 265.3-18.25 264.72-20.7 264.32-22.6L264.32-22.6Q264.67-22.95 265.2-23.25 265.72-23.55 266.47-23.55L266.47-23.55Q267.42-23.55 267.9-23.03 268.37-22.5 268.57-21.35L268.57-21.35Q269.02-19.25 269.6-16.6 270.17-13.95 270.8-11.35 271.42-8.75 271.95-6.68 272.47-4.6 272.72-3.6L272.72-3.6 272.92-3.6Q273.32-4.8 274.17-7.53 275.02-10.25 276.2-13.75 277.37-17.25 278.57-20.85L278.57-20.85Q278.97-21.1 279.52-21.23 280.07-21.35 280.72-21.35L280.72-21.35Q281.62-21.35 282.22-21.03 282.82-20.7 283.02-20.05L283.02-20.05Q284.22-16.6 285.27-13.28 286.32-9.95 287.12-7.38 287.92-4.8 288.27-3.55L288.27-3.55 288.52-3.55Q289.67-8 291.02-13.1 292.37-18.2 293.22-23.1L293.22-23.1Q293.92-23.55 294.92-23.55L294.92-23.55Q295.77-23.55 296.27-23.15 296.77-22.75 296.77-21.9L296.77-21.9Q296.77-21.35 296.45-19.8 296.12-18.25 295.57-16.15 295.02-14.05 294.35-11.68 293.67-9.3 292.97-7.08 292.27-4.85 291.65-3.05 291.02-1.25 290.57-0.25L290.57-0.25Q290.32-0.05 289.75 0.13 289.17 0.3 288.42 0.3L288.42 0.3Q286.37 0.3 286.02-0.65L286.02-0.65Q285.32-2.45 284.42-5.13 283.52-7.8 282.57-10.93 281.62-14.05 280.67-17.2ZM322.57-15.25L322.57-15.25 322.57-10.15 318.57-10.15 318.57-15.05Q318.57-17.85 317-19.15 315.42-20.45 312.77-20.45L312.77-20.45Q310.77-20.45 309.22-19.95 307.67-19.45 306.57-18.8L306.57-18.8 306.57-10.15 302.57-10.15 302.57-18.6Q302.57-19.65 303-20.33 303.42-21 304.47-21.65L304.47-21.65Q305.77-22.4 307.92-23.08 310.07-23.75 312.77-23.75L312.77-23.75Q317.32-23.75 319.94-21.68 322.57-19.6 322.57-15.25ZM302.57-1.55L302.57-12.9 306.57-12.9 306.57-0.1Q306.32 0 305.82 0.13 305.32 0.25 304.72 0.25L304.72 0.25Q303.67 0.25 303.12-0.18 302.57-0.6 302.57-1.55L302.57-1.55ZM318.57-1.55L318.57-12.9 322.57-12.9 322.57-0.1Q322.32 0 321.8 0.13 321.27 0.25 320.72 0.25L320.72 0.25Q319.62 0.25 319.09-0.18 318.57-0.6 318.57-1.55L318.57-1.55Z" opacity="1" transform="matrix(1,0,0,1,0,0)" fill="#f9ad59" class="slogan-text-1" data-fill-palette-color="secondary" id="text-1"></path></svg></g></svg></g></svg></g></svg></g><g transform="matrix(1,0,0,1,0,0.516927319287916)"><svg viewBox="0 0 222.7537066284153 206.7709277151724" height="206.7709277151724" width="222.7537066284153"><g><svg xmlns="http://www.w3.org/2000/svg" xmlns:xlink="http://www.w3.org/1999/xlink" version="1.1" x="0" y="0" viewBox="7 14 84.02916845713543 78" enable-background="new 0 0 100 100" xml:space="preserve" height="206.7709277151724" width="222.7537066284153" class="icon-icon-0" data-fill-palette-color="accent" id="icon-0"><path fill="#fbb168" d="M22.447 23.83C23.835 29.382 31.317 62.232 31.941 65.351 32.512 68.205 33.922 72 39.551 72H87.139A2 2 0 0 0 87.139 68H39.551C37.195 68 36.403 67.262 35.863 64.566 35.794 64.222 35.625 63.443 35.383 62.345L83.692 53.124A9.04 9.04 0 0 0 91.029 44.191L90.932 29.339C90.906 25.268 87.567 22 83.49 22H26.07C24.512 17 21.826 14 17.667 14H9A2 2 0 0 0 9 18H17.667C18.909 18 20.99 18 22.447 23.83M86.933 29.366L87.03 44.241A5.024 5.024 0 0 1 82.942 49.208L34.514 58.492C32.508 49.549 28.844 33 27.063 26H83.49C85.376 26 86.92 27.485 86.933 29.366" data-fill-palette-color="accent"></path><path fill="#fbb168" d="M88 83C88 78.037 83.962 74 79 74S70 78.037 70 83 74.038 92 79 92 88 87.963 88 83M74 83C74 80.243 76.243 78 79 78S84 80.243 84 83 81.757 88 79 88 74 85.757 74 83" data-fill-palette-color="accent"></path><path fill="#fbb168" d="M41 74C36.038 74 32 78.037 32 83S36.038 92 41 92 50 87.963 50 83 45.962 74 41 74M41 88C38.243 88 36 85.757 36 83S38.243 78 41 78 46 80.243 46 83 43.757 88 41 88" data-fill-palette-color="accent"></path></svg></g></svg></g></svg></g><defs></defs></svg><rect width="395.52" height="117.69428346405464" fill="none" stroke="none" visibility="hidden"></rect></g></svg></g></svg>